<svg width="26" height="20" viewBox="0 0 26 20" fill="none" xmlns="http://www.w3.org/2000/svg">
<g clip-path="url(#clip0_13_8358)">
<path d="M3.42194 1.81592V16.2901C3.42194 16.9336 4.09957 17.4511 4.94254 17.4511H23.8036C25.1593 17.4511 25.8536 16.2018 24.8946 15.4572L6.0335 0.995824C5.07488 0.25129 3.42194 0.768587 3.42194 1.81592Z" fill="#FCDB9A"/>
<path d="M1.09096 3.12841L4.11585 0.831697C4.47951 0.566823 5.43813 0.856883 5.78548 1.13449L24.6132 15.6969C24.8779 15.8987 25.3405 16.6687 24.7785 17.2491L22.3319 19.0285C22.051 19.3313 21.737 19.344 21.3896 19.0789L1.61995 4.35232C1.2233 4.06226 0.694314 3.4312 1.09096 3.12841Z" fill="#F7C18B"/>
<path d="M21.8697 20.0001C21.5557 20.0001 21.1424 19.9245 20.7127 19.5963L0.958624 4.88242C0.793664 4.76894 0 4.13788 0 3.40608C0 3.10329 0.14865 2.81295 0.430009 2.61118L3.43859 0.314466C4.33123 -0.341777 5.8852 0.163069 6.46349 0.617261L25.2912 15.1794C25.8035 15.558 26.4482 16.7316 25.5555 17.6779L25.4399 17.7789L23.0429 19.5204C22.6793 19.8739 22.266 19.9746 21.9683 20.0001H21.8697ZM1.96692 3.49437C2.03328 3.5954 2.14893 3.72161 2.29758 3.83509L21.8363 18.3975L24.0512 16.795C24.2003 16.5805 24.0019 16.2649 23.9356 16.2146L5.10784 1.65214C5.02518 1.58903 4.79386 1.51348 4.62853 1.47556L1.96692 3.49437Z" fill="#4C2F1B"/>
<path d="M16.9601 16.946C16.2491 16.946 15.8362 16.5801 15.4888 16.2519C15.4229 16.2015 15.3732 16.1384 15.2905 16.0877L3.88452 7.28008L3.86783 7.26735C3.25618 6.73732 2.99187 6.0307 3.15721 5.33654C3.32254 4.64237 3.86783 4.03678 4.69449 3.69607C5.6698 3.2798 6.99208 2.76222 7.42208 2.64874C7.70307 2.57318 7.95107 2.48461 8.18276 2.39632C8.66207 2.23219 9.10839 2.06805 9.67037 2.06805C11.0753 2.06805 12.216 3.00191 15.1749 6.00523C17.4561 8.32713 20.3157 10.1569 22.415 11.507C23.1753 11.9992 23.8366 12.4157 24.3159 12.7689C24.6299 13.0086 24.7952 13.3241 24.7789 13.6773C24.7129 14.5101 23.5886 15.3305 23.1589 15.5701L23.0103 15.6584L18.0181 16.6806C17.7204 16.8074 17.3735 16.946 16.9601 16.946Z" fill="#FF9988"/>
<path d="M16.9602 17.5256C15.9137 17.5256 15.3139 16.991 14.9165 16.6373L14.8869 16.6115C14.8376 16.5739 14.7816 16.5315 14.7401 16.4887L3.31552 7.66439L3.30663 7.64911C2.51852 6.97136 2.19231 6.09382 2.39508 5.22449C2.60008 4.35714 3.29884 3.6143 4.31196 3.18615C5.17012 2.81176 6.64328 2.23701 7.14298 2.09807C7.31646 2.04543 7.46882 1.99393 7.62155 1.94299L7.93701 1.83772C8.42448 1.67416 8.97682 1.4888 9.65371 1.4888C11.4735 1.4888 12.8421 2.6946 15.7591 5.65548C17.9751 7.91512 20.791 9.71774 22.8468 11.0336L22.8817 11.056C23.53 11.4669 24.2674 11.9403 24.8242 12.3376C25.3083 12.6956 25.5507 13.1818 25.5051 13.7053C25.3947 14.9946 23.6164 16.0125 23.5986 16.0215L23.3184 16.1755L23.0048 16.2439L18.2999 17.2084L18.2739 17.2208C17.8587 17.4234 17.4169 17.5256 16.9602 17.5256ZM9.65371 2.63489C9.2478 2.63489 8.89489 2.76167 8.44783 2.92212C8.21652 3.00532 7.95443 3.09955 7.64898 3.18728C7.31424 3.27217 6.03385 3.77617 5.04409 4.19329C4.43614 4.44826 4.01762 4.89283 3.89604 5.41268C3.77333 5.93705 3.96721 6.47019 4.42799 6.87515L15.8425 15.6904C15.92 15.7566 15.9956 15.8243 16.0653 15.8865C16.3771 16.1653 16.6024 16.3668 16.9598 16.3668C17.1652 16.3668 17.3761 16.2986 17.66 16.1392L22.6352 15.1171L22.6656 15.1001C23.1734 14.8149 23.9434 14.1521 23.9841 13.6362C23.9986 13.4512 23.9208 13.2918 23.7584 13.1753C23.2776 12.8221 22.6107 12.3936 21.8385 11.8973C19.736 10.5463 16.856 8.69587 14.541 6.34285C11.6896 3.43206 10.639 2.63489 9.65371 2.63489Z" fill="#4C2F1B"/>
<path d="M13.8856 15.8735C11.439 15.8735 8.95941 14.8893 7.25679 13.2488C4.44653 10.5486 4.56219 6.90145 7.52147 5.10959C8.57944 4.46608 9.90172 4.12537 11.3233 4.12537C13.77 4.12537 16.2492 5.10959 17.9522 6.75034C20.7624 9.45059 20.6468 13.0977 17.6875 14.8896C16.6295 15.5328 15.3072 15.8735 13.8856 15.8735Z" fill="#FF624D"/>
<path d="M13.8856 16.4528C11.204 16.4528 8.50012 15.3896 6.6533 13.6085C3.59134 10.668 3.7626 6.65411 7.03438 4.66076C8.21913 3.93943 9.69673 3.55853 11.3067 3.55853C13.972 3.55853 16.6755 4.62228 18.5394 6.40339C19.9932 7.8002 20.7761 9.46868 20.7439 11.1012C20.7116 12.8501 19.7931 14.3592 18.1579 15.3503C16.9732 16.0716 15.4956 16.4528 13.8856 16.4528ZM11.3067 4.70462C10.0582 4.70462 8.9064 4.9995 7.97632 5.55726C5.36142 7.14905 5.30248 10.4322 7.84435 12.8764C9.42204 14.3824 11.6803 15.2815 13.8856 15.2815C15.1341 15.2815 16.2859 14.9866 17.216 14.4289C19.8309 12.8368 19.8898 9.55386 17.3479 7.10972C15.7702 5.60339 13.5116 4.70462 11.3067 4.70462Z" fill="#4C2F1B"/>
<path d="M17.4065 10.1317C17.4065 10.3128 17.5989 10.46 17.8365 10.46C18.0737 10.46 18.2661 10.3131 18.2661 10.1317C18.2661 9.95061 18.0737 9.80374 17.8365 9.80374C17.5989 9.80374 17.4065 9.95061 17.4065 10.1317Z" fill="#FF7A6C"/>
<path d="M3.88455 2.71184C3.88455 2.71184 6.36415 1.21032 8.00078 2.71184C9.63704 4.21364 8.56275 4.76886 10.695 5.14749C12.8276 5.52584 11.6043 7.25489 12.9099 7.67116C14.2159 8.08743 16.7782 7.30526 16.8441 9.19815C16.9105 11.091 17.2905 11.0152 18.2658 11.6335C19.2578 12.2518 21.6547 10.9648 21.886 12.8198C22.101 14.6875 21.8197 14.662 22.514 15.2931C23.754 16.4287 20.8114 17.1353 18.9434 16.9084C17.0755 16.6939 18.0838 16.189 17.3401 15.7221C16.5961 15.2552 2.38026 3.1915 2.38026 3.1915C2.38026 3.1915 2.36395 2.87597 3.88455 2.71184Z" fill="#6CEA90"/>
<path d="M19.6711 17.5267C19.3738 17.5267 19.0924 17.514 18.8281 17.4761C17.5885 17.3247 17.0428 17.0091 16.9272 16.3152C16.9105 16.2018 16.9105 16.2018 16.8608 16.1638C16.1172 15.6969 4.19852 5.58925 1.81827 3.57014L1.63663 3.41846L1.61995 3.20424C1.58696 2.67421 2.24828 2.32076 3.57056 2.15663C4.7112 1.53831 6.9921 0.882065 8.57943 2.33321C9.32305 3.02738 9.57105 3.54468 9.75306 3.92331C9.95138 4.35232 9.98438 4.41542 10.8607 4.56682C12.5633 4.86961 12.7783 5.87931 12.9103 6.49763C12.993 6.92692 13.0593 7.06558 13.208 7.11595C13.489 7.20424 13.9516 7.21698 14.3979 7.22943C15.5715 7.26735 17.5551 7.31772 17.6215 9.17269C17.6712 10.5228 17.8031 10.5987 18.3818 10.9394C18.4974 11.0149 18.6298 11.0908 18.7784 11.1793C18.9108 11.2676 19.4231 11.2297 19.7537 11.2045C20.6301 11.1414 22.4647 11.0279 22.663 12.7694C22.7293 13.3371 22.7456 13.7412 22.762 14.0313C22.7949 14.6244 22.7949 14.6244 23.1089 14.9145C23.6216 15.3814 23.7373 15.9242 23.3899 16.3911C22.7786 17.186 21.0597 17.5267 19.6711 17.5267ZM18.4478 16.2142C18.5138 16.2394 18.6958 16.2898 19.0594 16.3277C20.4314 16.4918 21.9357 16.0628 22.0513 15.8104C22.0513 15.8104 22.035 15.76 21.9357 15.6717C21.324 15.1165 21.2743 14.8514 21.2414 14.0944C21.225 13.8168 21.2084 13.4254 21.1424 12.8829C21.0764 12.3404 20.977 12.3025 19.8861 12.3781C19.1918 12.4284 18.4148 12.4791 17.8031 12.0877C17.6708 12.0122 17.5551 11.9363 17.4562 11.8732C16.5138 11.318 16.1669 10.9646 16.1009 9.21061C16.0842 8.51645 15.7539 8.44089 14.3653 8.40297C13.7866 8.39024 13.175 8.36505 12.646 8.20092C11.6707 7.89812 11.5387 7.19151 11.4227 6.68666C11.2903 6.08107 11.2244 5.82865 10.5467 5.71489C8.99276 5.43728 8.6621 4.99554 8.34812 4.32685C8.18278 3.99887 8.01745 3.62023 7.43879 3.0902C6.29816 2.04287 4.46357 3.12784 4.39722 3.17849L4.23189 3.27952L4.03356 3.3047C3.88491 3.31744 3.75257 3.34262 3.63692 3.35536C9.27375 8.13781 17.2745 14.889 17.8695 15.2801C18.3822 15.5956 18.4481 15.9742 18.4811 16.176C18.4315 16.1763 18.4478 16.189 18.4478 16.2142Z" fill="#4C2F1B"/>
<path d="M0.892639 3.70882V18.1827C0.892639 18.8262 1.57027 19.3438 2.41324 19.3438H21.2743C22.6296 19.3438 23.3243 18.0944 22.3653 17.3501L3.50458 2.88873C2.54595 2.15664 0.892639 2.67422 0.892639 3.70882Z" fill="#FFE9B8"/>
<path d="M2.41364 19.9355C1.15661 19.9355 0.13385 19.155 0.13385 18.1954V3.70909C0.13385 2.99399 0.688043 2.36095 1.54621 2.09664C1.82312 2.01005 2.11449 1.96619 2.41401 1.96619C3.02084 1.96619 3.61396 2.15296 4.041 2.47924L22.9017 16.9528C23.5686 17.4619 23.7551 18.1909 23.3881 18.8553C23.0207 19.5218 22.2111 19.9358 21.2747 19.9358H2.41364V19.9355ZM2.42995 3.12728C2.30725 3.12728 2.20827 3.15359 2.14933 3.16916L2.1093 3.18104C1.73119 3.32537 1.65186 3.55458 1.65186 3.72126V18.1951C1.65186 18.5172 2.0081 18.7894 2.43032 18.7894H21.2911C21.5098 18.7894 21.8104 18.7285 21.9991 18.4396C22.0829 18.3117 22.1459 18.0301 21.8504 17.7885L2.96858 3.2982C2.82215 3.18614 2.63569 3.12728 2.42995 3.12728Z" fill="#4C2F1B"/>
<path d="M13.4393 6.13172C13.4393 6.31283 13.6317 6.45999 13.8689 6.45999C14.1062 6.45999 14.2985 6.31312 14.2985 6.13172C14.2985 5.95061 14.1062 5.80374 13.8689 5.80374C13.6317 5.80374 13.4393 5.95061 13.4393 6.13172Z" fill="#FF7461"/>
<path d="M15.2739 6.72487C15.2739 6.90598 15.4663 7.05285 15.7035 7.05285C15.9407 7.05285 16.1331 6.90598 16.1331 6.72487C16.1331 6.54376 15.9407 6.39661 15.7035 6.39661C15.4663 6.39661 15.2739 6.54348 15.2739 6.72487Z" fill="#FF7A6C"/>
<path d="M3.58722 11.7094C3.58722 12.0648 3.96459 12.3529 4.43019 12.3529C4.89578 12.3529 5.27315 12.0648 5.27315 11.7094C5.27315 11.4793 5.11264 11.267 4.85167 11.1519C4.59107 11.037 4.26967 11.037 4.0087 11.1519C3.74773 11.267 3.58722 11.4793 3.58722 11.7094Z" fill="#FFD899"/>
<path d="M14.4309 16.946C14.4309 17.3015 14.8083 17.5895 15.2739 17.5895C15.7395 17.5895 16.1168 17.3015 16.1168 16.946C16.1168 16.5906 15.7395 16.3025 15.2739 16.3025C14.8083 16.3025 14.4309 16.5906 14.4309 16.946Z" fill="#FFD899"/>
<path d="M9.83569 13.0595C9.83569 13.2896 9.99621 13.5018 10.2572 13.617C10.5178 13.7319 10.8395 13.7319 11.1001 13.617C11.3611 13.5018 11.5216 13.2896 11.5216 13.0595C11.5216 12.8297 11.3611 12.6172 11.1001 12.5023C10.8395 12.3874 10.5178 12.3874 10.2572 12.5023C9.99621 12.6172 9.83569 12.8297 9.83569 13.0595Z" fill="#FFD899"/>
<path d="M9.83569 16.2142C9.83569 16.444 9.99621 16.6565 10.2572 16.7714C10.5178 16.8863 10.8395 16.8863 11.1001 16.7714C11.3611 16.6565 11.5216 16.444 11.5216 16.2142C11.5216 15.9841 11.3611 15.7719 11.1001 15.6567C10.8395 15.5418 10.5178 15.5418 10.2572 15.6567C9.99621 15.7719 9.83569 15.9841 9.83569 16.2142Z" fill="#FFD899"/>
<path d="M7.53778 14.1699C7.53778 14.3997 7.69866 14.6123 7.95926 14.7271C8.22024 14.842 8.54163 14.842 8.80223 14.7271C9.0632 14.6123 9.22371 14.3997 9.22371 14.1699C9.22371 13.9399 9.0632 13.7276 8.80223 13.6127C8.54163 13.4976 8.21986 13.4976 7.95926 13.6127C7.69866 13.7276 7.53778 13.9402 7.53778 14.1699Z" fill="#FFD899"/>
<path d="M7.02545 9.50094C7.02545 9.73101 7.18596 9.94325 7.44694 10.0584C7.70754 10.1733 8.0293 10.1733 8.2899 10.0584C8.5505 9.94325 8.71138 9.73101 8.71138 9.50094C8.71138 9.27116 8.55087 9.05864 8.2899 8.94374C8.02893 8.82885 7.70754 8.82885 7.44694 8.94374C7.18596 9.05835 7.02545 9.27116 7.02545 9.50094Z" fill="#FFD899"/>
<path d="M3.20691 14.1068C3.20691 14.4623 3.58428 14.7503 4.04988 14.7503C4.51547 14.7503 4.89284 14.4623 4.89284 14.1068C4.89284 13.8771 4.73233 13.6645 4.47136 13.5496C4.21076 13.4347 3.88899 13.4347 3.62839 13.5496C3.36742 13.6645 3.20691 13.8771 3.20691 14.1068Z" fill="#FFE3B6"/>
<path d="M5.07483 16.4287C5.07483 16.6588 5.23534 16.871 5.49631 16.9862C5.75691 17.1011 6.07868 17.1011 6.33928 16.9862C6.60025 16.871 6.76076 16.6588 6.76076 16.4287C6.76076 16.199 6.60025 15.9864 6.33928 15.8715C6.07868 15.7566 5.75691 15.7566 5.49631 15.8715C5.23534 15.9864 5.07483 16.199 5.07483 16.4287Z" fill="#FFE3B6"/>
<path d="M13.0756 14.801C13.0756 15.1564 13.453 15.4445 13.9186 15.4445C14.3842 15.4445 14.7616 15.1564 14.7616 14.801C14.7616 14.4456 14.3842 14.1575 13.9186 14.1575C13.453 14.1572 13.0756 14.4456 13.0756 14.801Z" fill="#FFE3B6"/>
<path d="M3.83484 9.04676C3.83484 9.40219 4.21258 9.69027 4.67781 9.69027C5.1434 9.69027 5.52077 9.40219 5.52077 9.04676C5.52077 8.81669 5.36026 8.60445 5.09929 8.48928C4.83832 8.37438 4.51692 8.37438 4.25632 8.48928C3.99572 8.60445 3.83484 8.81669 3.83484 9.04676Z" fill="#FFE3B6"/>
</g>
<defs>
<clipPath id="clip0_13_8358">
<rect width="26" height="20" fill="white"/>
</clipPath>
</defs>
</svg>
