<svg width="8" height="20" viewBox="0 0 8 20" fill="none" xmlns="http://www.w3.org/2000/svg">
<g clip-path="url(#clip0_13_8407)">
<path d="M18.188 16.827C18.188 16.827 16.6194 18.3 14.9216 17.956C13.224 17.6116 11.1734 16.6652 9.84198 16.4796C8.51058 16.2936 5.67518 15.5108 4.57418 13.8874C3.47318 12.2641 2.23218 7.97331 4.50558 5.33574C6.77898 2.69816 9.27858 1.14138 11.424 1.42358C13.5694 1.70597 16.209 2.81756 17.2244 4.80794C18.2396 6.79832 18.4698 8.9517 18.9342 10.7413C19.3986 12.5311 19.4352 14.9378 19.0052 15.6288C18.5754 16.3196 18.188 16.827 18.188 16.827Z" fill="#FF4A41"/>
<path d="M17.2246 4.80795C18.2402 6.79833 18.47 8.95151 18.9344 10.7413C19.3988 12.5311 19.4354 14.9378 19.0054 15.6286C18.5754 16.3196 18.1882 16.827 18.1882 16.827C18.1882 16.827 16.6196 18.3 14.9218 17.9558C14.1262 17.7752 13.3422 17.5462 12.5744 17.2702C12.7306 17.1746 12.8306 17.1192 12.8306 17.1192C12.8306 17.1192 15.5308 16.3076 16.1108 15.5468C16.9222 14.4845 17.2792 13.8035 16.6664 12.0095C16.0538 10.2157 16.7846 7.01613 14.4448 4.61815C12.6624 2.79117 9.10719 2.58977 7.51379 2.59737C8.86079 1.70178 10.2 1.26219 11.4242 1.42358C13.5698 1.70638 16.2092 2.81757 17.2246 4.80795Z" fill="#E80C00"/>
<path d="M8.47198 6.78073L6.90598 6.95832L5.51558 8.69551L4.65938 7.56092L3.53918 7.75112L3.68838 6.53413L2.70398 5.95093L4.52658 4.66975C4.52658 4.66975 5.02398 4.20275 4.66898 3.67456C4.31398 3.14616 3.55418 2.49537 4.04938 2.10237C4.54438 1.70958 5.14038 1.65218 5.39218 1.91838C5.64378 2.18477 6.70738 2.62157 6.70738 2.62157L7.41038 1.53098L8.33558 0.446991L8.63858 1.45498L10.076 1.82878L9.93358 2.82397L10.9114 3.62896L8.97958 4.79655L8.47198 6.78073Z" fill="#E8EC5C"/>
<path d="M3.7056 18.6542C3.3432 18.5564 1.7476 17.3768 1.1012 15.6713C0.454598 13.9657 0.125998 12.7693 0.794198 11.3531C1.4624 9.93691 2.7084 8.90452 3.9374 9.26891C4.678 9.48931 5.3502 9.89491 5.8906 10.4471C5.8906 10.4471 8.1828 9.85971 9.14199 10.9983C10.1012 12.1369 10.5584 13.8239 9.55959 15.5091C8.5606 17.1942 5.8986 18.5616 5.1454 18.7166C4.6696 18.8362 4.1692 18.8146 3.7056 18.6542Z" fill="#FF6E7A"/>
<path d="M9.55938 15.509C8.56038 17.1944 5.89858 18.5616 5.14518 18.7168C4.66938 18.8362 4.16918 18.8146 3.70538 18.6542C3.40098 18.547 3.10278 18.4224 2.81238 18.2812C2.87578 18.2712 3.52298 18.1394 3.59358 18.125C4.34698 17.9698 6.69778 16.939 7.69658 15.2538C8.69538 13.5687 8.08198 11.8815 7.12278 10.7431C6.98518 10.5823 6.83458 10.4327 6.67278 10.2961C7.36898 10.2895 8.65898 10.4251 9.14158 10.9983C10.101 12.1367 10.5582 13.8239 9.55938 15.509Z" fill="#FF2C43"/>
<path d="M19.6792 15.6288C19.215 16.6392 17.9736 17.9124 16.9004 18.2382C15.6388 18.5854 14.2952 18.4742 13.1078 17.9246C12.2702 17.546 10.741 17.245 9.19897 16.8168C8.03337 18.0578 6.41377 18.8498 5.70817 19.0336C4.43297 19.3656 3.73517 19.1502 3.73517 19.1502C3.73517 19.1502 3.02377 18.9856 2.08437 18.0566C1.32017 17.3002 -0.505029 14.4095 0.132971 12.0127C0.632971 10.1323 1.67377 9.09971 2.80477 8.82711C2.84457 8.17412 2.97977 7.53052 3.20637 6.91673L3.22677 6.73333C3.22677 6.73333 1.96777 6.41673 2.03217 5.92834C2.09637 5.43974 3.65357 4.92555 3.96817 4.53755C4.28277 4.14975 4.40097 3.94776 4.22037 3.65836C4.03977 3.36936 3.57357 3.07296 3.59177 2.53557C3.61597 2.21737 3.76477 1.92178 4.00597 1.71298C4.22997 1.48518 4.53477 1.35458 4.85437 1.34978C5.39357 1.36358 5.66277 1.84478 5.94177 2.04137C6.22077 2.23817 6.43077 2.13277 6.83737 1.84278C7.24417 1.55258 7.85137 0.0349941 8.34477 0.000594442C8.83797 -0.0338052 9.08017 1.23698 9.08017 1.23698L9.63437 1.20878C10.1274 1.09558 10.6318 1.04078 11.1372 1.04518C14.1854 1.08898 16.6206 2.62317 17.7186 4.76795C18.8166 6.91273 19.0284 10.3735 19.5914 11.8361C20.1546 13.2987 20.0886 14.7378 19.6792 15.6288ZM0.98697 12.4533C0.56617 14.0347 1.92137 16.6484 2.57377 17.2918C3.37557 18.0822 3.98237 18.2228 3.98237 18.2228C3.98237 18.2228 4.57817 18.4062 5.66457 18.1248C6.54937 17.896 9.02137 16.3146 9.44237 14.7331C9.98417 12.6977 9.40977 11.4879 8.25357 10.9923C7.09697 10.4967 5.92177 10.9391 5.92177 10.9391C5.92177 10.9391 5.12317 9.9643 3.87497 9.8115C2.62697 9.6587 1.52877 10.4173 0.98697 12.4533ZM9.46397 3.01717C9.34677 2.72957 9.62237 2.03877 9.62237 2.03877L8.49897 1.99657L8.19217 1.21398L7.61137 2.20357C7.61137 2.20357 7.82877 2.56457 7.69537 2.75057C7.56197 2.93677 6.50457 3.22636 6.12617 3.15356C5.74777 3.08056 5.50897 2.63177 5.15357 2.35397C4.98717 2.20877 4.74697 2.18457 4.55497 2.29397C4.43397 2.47837 4.44397 2.71937 4.57957 2.89297C4.83697 3.26336 5.27237 3.52736 5.32277 3.90856C5.37317 4.28995 5.02057 5.32414 4.82597 5.44574C4.63157 5.56734 4.28297 5.32974 4.28297 5.32974L3.25697 5.84894L4.02257 6.20033L3.99817 7.32052C3.99817 7.32052 4.70657 7.08753 4.98757 7.22112C5.26877 7.35472 5.40157 8.11712 5.40157 8.11712C5.40157 8.11712 6.67917 6.48873 7.01557 6.38673C7.28757 6.30413 8.06357 6.30673 8.35217 6.31073C8.36537 6.02354 8.40897 5.25114 8.50777 4.98555C8.62997 4.65655 10.3366 3.48236 10.3366 3.48236C10.3366 3.48236 9.58117 3.30476 9.46397 3.01717ZM18.7818 12.5965C18.2194 11.1339 17.8052 7.00073 17.0238 5.42054C15.9558 3.26116 13.814 2.08357 10.7654 2.03977C10.6546 2.03817 10.5454 2.04177 10.4372 2.04777L10.3592 2.81857C10.3592 2.81857 10.8678 2.79977 11.1248 3.17016C11.3818 3.54036 11.2748 3.88556 10.98 4.16255C10.685 4.43995 9.35757 5.19674 9.27337 5.33694C9.18937 5.47714 9.21097 6.25253 9.22837 6.66413C9.23937 6.92093 9.14417 7.02733 9.07197 7.07033C9.02397 7.14053 8.91177 7.22852 8.65517 7.20232C8.24397 7.16033 7.46837 7.09293 7.32297 7.16873C7.17757 7.24432 6.34057 8.51951 6.04537 8.79671C5.75017 9.07391 5.39817 9.15971 5.04257 8.88211C4.68717 8.60411 4.73597 8.09932 4.73597 8.09932L3.85957 8.13531C3.84017 8.27591 3.82557 8.41791 3.81917 8.56331C3.81577 8.63631 3.81477 8.70751 3.81317 8.77911C4.70017 8.91911 5.52717 9.3139 6.19377 9.9155C7.09317 9.7239 8.02937 9.8069 8.88117 10.1535C10.2368 10.7353 11.0384 12.3849 10.4004 14.7814C10.2792 15.2204 10.0882 15.6372 9.83497 16.0158C11.4214 16.4296 13.094 16.792 13.9168 17.1642C15.3482 17.8114 16.1994 17.4962 17.0556 17.0152C17.7718 16.6126 17.9992 16.3994 18.4452 15.7104C18.9782 14.8874 19.3448 14.0591 18.7818 12.5963V12.5965ZM15.3018 14.6911C14.7954 14.1555 14.7446 13.3835 15.1882 12.9669C15.632 12.5501 16.4022 12.6465 16.9086 13.1821C17.415 13.7177 17.466 14.4897 17.0222 14.9064C16.5786 15.323 15.8082 15.2266 15.3018 14.6911ZM16.0048 10.8957C15.5086 11.2441 14.7596 11.0375 14.332 10.4343C13.9044 9.8311 13.96 9.05931 14.457 8.71151C14.954 8.36331 15.7022 8.56971 16.1298 9.17291C16.5576 9.7761 16.5014 10.5471 16.0048 10.8957ZM13.2602 6.33673C12.7558 5.68574 12.7382 4.85675 13.2206 4.48515C13.7032 4.11355 14.503 4.34035 15.0074 4.99155C15.5116 5.64274 15.5292 6.47153 15.0468 6.84313C14.5644 7.21472 13.7646 6.98793 13.2602 6.33673ZM10.2316 9.3285C9.66537 8.72971 9.56637 7.90652 10.0102 7.49012C10.4538 7.07353 11.2724 7.22072 11.8382 7.81932C12.404 8.41791 12.5034 9.24111 12.0596 9.6577C11.6158 10.0743 10.7974 9.9275 10.2316 9.3285ZM5.75797 11.5515C6.50797 11.7547 6.84517 12.9387 6.50997 14.1979C6.17497 15.457 5.29477 16.3134 4.54437 16.111C3.79397 15.9086 3.45717 14.7239 3.79237 13.4649C4.12757 12.2057 5.00757 11.3491 5.75797 11.5515ZM4.78717 15.1992C5.12077 15.2892 5.55417 14.7497 5.75577 13.9943C5.95757 13.2389 5.84957 12.5535 5.51617 12.4631C5.18257 12.3727 4.74897 12.9125 4.54737 13.6681C4.34557 14.4235 4.45317 15.1094 4.78717 15.1992Z" fill="#440911"/>
<path d="M3.56497 10.6643C3.25617 10.3433 2.62757 11.3837 2.22437 12.0355C1.95937 12.5045 1.77617 13.0151 1.68237 13.5455C1.68237 13.5455 2.19677 12.9397 2.81497 12.2801C3.43317 11.6201 3.54677 11.6295 3.69377 11.2909C3.80117 11.0423 3.87377 10.9847 3.56497 10.6643Z" fill="white"/>
</g>
<defs>
<clipPath id="clip0_13_8407">
<rect width="20" height="20" fill="white"/>
</clipPath>
</defs>
</svg>
