<svg width="22" height="20" viewBox="0 0 22 20" fill="none" xmlns="http://www.w3.org/2000/svg">
<g clip-path="url(#clip0_13_7686)">
<path d="M11.1627 19.2899C10.9434 19.2899 10.738 19.2077 10.601 19.0435L10.5874 19.0296L10.5736 19.0158C8.53257 16.4133 5.80689 13.6328 4.97134 13.578C4.60146 13.7835 4.16319 13.8795 3.71109 13.8795C2.42369 13.8795 1.17702 13.0578 0.752574 11.9072C0.46492 11.1677 0.286895 9.64716 2.25924 7.90765C4.46443 5.97629 6.49159 4.44222 10.8062 3.79852C11.1896 3.7437 11.5459 3.71629 11.8745 3.71629C14.8195 3.71629 15.0385 5.98987 15.162 7.20913C15.1894 7.51061 15.2168 7.78444 15.2716 7.97629C15.3674 8.30494 16.1481 9.37333 20.3669 12.9072C20.6681 13.1538 20.8326 13.5511 20.7916 13.9346C20.7503 14.3318 20.5175 14.6741 20.175 14.8659L20.0654 14.9207C12.5459 18.961 11.5871 19.2899 11.1627 19.2899Z" fill="#E7A664"/>
<path d="M11.176 19.8696C10.7958 19.8696 10.4341 19.7116 10.1837 19.4358L10.138 19.3899L10.1277 19.3696C8.25185 16.9904 5.98247 14.6815 5.06197 14.2141L5.00469 14.1852L4.94543 14.2096C4.57259 14.364 4.14099 14.4457 3.69753 14.4457C2.15259 14.4457 0.71358 13.4859 0.198519 12.1119C-0.067654 11.3933 -0.437777 9.50322 1.87185 7.48544C4.14741 5.48247 6.24271 3.89754 10.7037 3.23112C11.081 3.1684 11.4696 3.1368 11.861 3.1368C13.34 3.1368 14.4247 3.67235 15.0849 4.72865C15.576 5.53852 15.6684 6.47655 15.7356 7.16124C15.7494 7.38692 15.7778 7.6368 15.8059 7.77778L15.8101 7.79902L15.8207 7.81803C16.0743 8.27457 17.1343 9.45309 20.743 12.4731C21.1953 12.8482 21.4277 13.4168 21.3649 13.9951C21.3146 14.5748 20.9731 15.0864 20.4514 15.3664L20.3457 15.419C12.0723 19.8696 11.657 19.8696 11.176 19.8696ZM10.9894 18.6324C11.0116 18.6711 11.0565 18.7101 11.1489 18.7101C11.5872 18.7101 14.5267 17.239 19.8857 14.3375C20.0679 14.238 20.1891 14.0566 20.2096 13.8516C20.2301 13.6474 20.1484 13.4464 19.9911 13.3141L19.8588 13.2022C18.5267 12.0778 14.9879 9.09112 14.7074 8.09581C14.6449 7.86791 14.6158 7.56741 14.5849 7.24914C14.463 5.99136 14.2958 4.26865 11.8612 4.26865C11.5674 4.26865 11.2469 4.29605 10.8812 4.35235C6.72049 4.98396 4.76173 6.46272 2.63333 8.33013C0.910864 9.83334 1.03901 11.0854 1.26889 11.698C1.61704 12.6262 2.63852 13.3 3.69778 13.3C4.08815 13.3 4.43407 13.2156 4.72568 13.0486C4.77975 13.0163 4.85333 12.9985 4.93037 12.9985C6.25358 12.9985 9.74395 17.0543 10.9894 18.6324Z" fill="#4C2F1B"/>
<path d="M11.0257 16.6738V18.7968C11.0257 19.1393 11.3956 19.3721 11.7106 19.2077L20.6687 14.5096C20.8193 14.4274 20.9289 14.263 20.9289 14.0988V11.7156L11.2995 16.2491C11.1353 16.3175 11.0257 16.482 11.0257 16.6738Z" fill="#E7A664"/>
<path d="M19.8602 14.0849C19.8602 13.7973 19.7919 13.7699 19.6958 13.7699C19.6 13.7699 19.5178 14.0027 19.5178 14.2904C19.5178 14.578 19.5862 14.7151 19.6822 14.7151C19.7919 14.7151 19.8602 14.3726 19.8602 14.0849ZM14.8746 15.2904C14.8746 15.0027 14.8062 14.9753 14.7101 14.9753C14.6143 14.9753 14.5321 15.2082 14.5321 15.4958C14.5321 15.7835 14.6005 15.9202 14.6965 15.9202C14.7923 15.9205 14.8746 15.578 14.8746 15.2904ZM14.5869 16.304C14.5869 16.0163 14.5185 15.9889 14.4225 15.9889C14.3264 15.9889 14.2444 16.2217 14.2444 16.5094C14.2444 16.797 14.3128 16.9341 14.4089 16.9341C14.5049 16.9341 14.5869 16.5916 14.5869 16.304ZM16.1894 16.2356C16.1894 15.9479 16.121 15.9205 16.0249 15.9205C15.9291 15.9205 15.8469 16.1533 15.8469 16.441C15.8469 16.7286 15.9153 16.8654 16.0114 16.8654C16.121 16.8519 16.1894 16.5232 16.1894 16.2356ZM17.6551 15.2356C17.6551 15.0027 17.6002 14.9753 17.5319 14.9753C17.4635 14.9753 17.3951 15.1672 17.3951 15.4C17.3951 15.6328 17.4499 15.7425 17.5319 15.7425C17.6141 15.7422 17.6551 15.4684 17.6551 15.2356Z" fill="#DB914D"/>
<path d="M11.4983 20C11.2976 20 11.1205 19.9489 10.9573 19.8442C10.6403 19.6491 10.4595 19.3279 10.4595 18.9617V16.8385C10.4595 16.4296 10.6958 16.0689 11.0763 15.897L21.4946 10.977V14.2635C21.4946 14.6622 21.2822 15.0101 20.9262 15.1943L11.9815 19.8926C11.7968 19.9627 11.6339 20 11.4983 20ZM11.6055 16.9005V18.7946L20.363 14.2109V12.7837L11.6055 16.9005Z" fill="#4C2F1B"/>
<path d="M16.2719 14.7286C16.2719 14.5918 16.2445 14.5642 16.1896 14.5642C16.1487 14.5642 16.1074 14.6738 16.1074 14.8244C16.1074 14.9751 16.1487 15.0299 16.1896 15.0299C16.2306 15.0301 16.2719 14.8795 16.2719 14.7286Z" fill="#DB914D"/>
<path d="M11.2859 16.1533C11.0669 16.1533 10.8615 16.0711 10.7245 15.9067L10.7106 15.8928L10.6968 15.8792C8.65606 13.2768 5.93038 10.496 5.09483 10.4415C4.72495 10.6469 4.28668 10.743 3.83458 10.743C2.54693 10.743 1.30051 9.92098 0.876062 8.77061C0.588407 8.01728 0.410136 6.49703 2.39631 4.7711C4.60174 2.8395 6.6289 1.30542 10.9435 0.661721C11.3269 0.606906 11.683 0.579498 12.0119 0.579498C14.9568 0.579498 15.1758 2.85308 15.2993 4.07209C15.3267 4.37357 15.3541 4.6474 15.4089 4.83925C15.5047 5.16814 16.2854 6.23654 20.5042 9.77036C20.8054 10.0306 20.9699 10.4141 20.9287 10.7975C20.8877 11.1948 20.6548 11.5373 20.3124 11.7289L20.2027 11.7837C12.6556 15.8244 11.6968 16.1533 11.2859 16.1533Z" fill="#F9D59A"/>
<path d="M11.3121 16.7328C10.9321 16.7328 10.5701 16.5748 10.3193 16.299L10.2738 16.2533L10.264 16.2336C8.38791 13.8536 6.11803 11.5447 5.19778 11.0773L5.1405 11.0484L5.08124 11.0728C4.70815 11.2272 4.2768 11.3089 3.83334 11.3089C2.2884 11.3089 0.849634 10.3491 0.334325 8.97482C0.0577817 8.26346 -0.331601 6.3921 2.00766 4.3484C4.28322 2.34568 6.37803 0.760988 10.8398 0.094321C11.2168 0.0316049 11.6054 0 11.9973 0C13.4761 0 14.5607 0.535556 15.2212 1.59185C15.7131 2.40247 15.8047 3.34 15.8719 4.02445C15.8859 4.25235 15.9146 4.50198 15.9425 4.64099L15.9467 4.66222L15.9573 4.68124C16.2106 5.13753 17.2704 6.31556 20.8795 9.3363C21.3321 9.71111 21.5645 10.2798 21.5015 10.858C21.4509 11.438 21.1096 11.9496 20.5879 12.2296L20.4817 12.2827C12.2086 16.7328 11.7931 16.7328 11.3121 16.7328ZM11.1254 15.5094C11.1477 15.5482 11.1926 15.5872 11.2847 15.5872C11.7235 15.5872 14.663 14.1161 20.0215 11.2146C20.204 11.1151 20.3249 10.9333 20.3457 10.7284C20.3662 10.5242 20.2845 10.3232 20.1272 10.1909L19.9958 10.08C18.6635 8.95531 15.1242 5.9679 14.8435 4.97259C14.781 4.74469 14.7519 4.4442 14.721 4.12593C14.599 2.8684 14.4319 1.14568 11.9973 1.14568C11.7052 1.14568 11.3896 1.17235 11.0042 1.22938C6.83754 1.8484 4.96272 3.26864 2.76889 5.20765C1.04667 6.71037 1.17482 7.96247 1.4047 8.57531C1.75284 9.50346 2.77433 10.1773 3.83359 10.1773C4.2242 10.1773 4.57013 10.0928 4.86149 9.92617C4.91581 9.89358 4.98939 9.8758 5.06618 9.8758C6.38988 9.87556 9.88001 13.9314 11.1254 15.5094Z" fill="#4C2F1B"/>
<path d="M11.1627 14.2494C11.0395 14.2494 10.9161 14.1946 10.8338 14.0988C10.6832 13.9207 10.7106 13.6467 10.8887 13.4961L16.7921 8.59259C16.9701 8.44198 17.2442 8.46938 17.3948 8.64741C17.5454 8.82543 17.518 9.09951 17.34 9.25013L11.4366 14.1533C11.3546 14.222 11.2585 14.2494 11.1627 14.2494ZM7.64248 10.7704C7.51927 10.7704 7.39606 10.7156 7.31384 10.6198C7.16297 10.4417 7.19063 10.1677 7.36865 10.017L13.6968 4.75728C13.8748 4.60667 14.1489 4.63408 14.2995 4.8121C14.4501 4.99012 14.4227 5.26395 14.2447 5.41457L7.91631 10.6743C7.83433 10.7291 7.73828 10.7704 7.64248 10.7704ZM4.17705 8.2637C4.05384 8.2637 3.93063 8.20889 3.84841 8.11309C3.69754 7.93506 3.7252 7.66099 3.90322 7.51037L10.2311 2.25062C10.4091 2.1 10.6832 2.12741 10.8338 2.30543C10.9845 2.48346 10.957 2.75728 10.779 2.9079L4.45112 8.1679C4.3689 8.2363 4.27285 8.2637 4.17705 8.2637Z" fill="#E7A664"/>
<path d="M10.4642 4.44222C14.6966 3.23704 13.3953 6.40099 14.6556 6.88025C15.6282 7.25012 17.5457 8.46914 16.0664 9.46889C14.861 10.2909 12.8887 13.1536 10.6835 11.181C9.43705 10.0852 8.28643 10.8111 7.72471 9.83877C7.16322 8.86617 7.21804 8.55136 6.27285 8.51012C5.32767 8.46914 4.14989 7.15407 5.16347 5.23654C6.51927 2.68889 9.25878 4.78469 10.4642 4.44222Z" fill="#F4E87C"/>
<path d="M12.2583 12.2906C11.6694 12.2906 11.0393 12.0714 10.4091 11.5099C9.87506 11.0442 9.36814 10.962 8.87506 10.8933C8.34098 10.8111 7.73827 10.7289 7.35481 10.0716C7.2316 9.86617 7.14938 9.70172 7.06716 9.5511C6.7795 9.0032 6.76567 8.9758 6.24543 8.94864C5.62888 8.92123 4.99901 8.51012 4.65654 7.89407C4.38271 7.42814 4.04024 6.42839 4.77975 5.05876C5.86172 3.0316 7.76567 3.52469 9.02592 3.85358C9.54642 3.99037 10.0669 4.1274 10.3546 4.04543C13.3405 3.19604 13.9706 4.37407 14.3677 5.66172C14.5047 6.1274 14.6143 6.40123 14.8197 6.48345C14.902 6.51086 16.8879 7.27802 17.0388 8.52444C17.0798 8.86691 16.9839 9.37357 16.3264 9.82567C16.0936 9.97654 15.8195 10.2365 15.5183 10.5106C14.7104 11.2222 13.5597 12.2906 12.2583 12.2906ZM7.19037 4.3874C6.49185 4.3874 5.95777 4.64765 5.53308 5.4558C5.1358 6.20913 5.08098 6.92148 5.39629 7.46938C5.62913 7.88024 6.01259 8.08567 6.28641 8.09925C7.24518 8.14049 7.47802 8.48271 7.82049 9.15382C7.88913 9.29086 7.98493 9.4553 8.09456 9.64691C8.25901 9.93456 8.4916 9.98938 8.99851 10.0578C9.56 10.14 10.2449 10.2358 10.9709 10.8797C12.3269 12.0849 13.5185 11.181 14.9291 9.87975C15.2442 9.59209 15.5457 9.31827 15.8195 9.12641C16.0662 8.94839 16.1894 8.78394 16.1758 8.6195C16.121 8.18123 15.2716 7.56493 14.5047 7.27728C13.8881 7.04444 13.7101 6.44172 13.5459 5.90765C13.2583 4.97629 13.0116 4.15432 10.5736 4.85308C10.0667 4.99012 9.47777 4.83925 8.80666 4.66123C8.19037 4.51061 7.65629 4.3874 7.19037 4.3874Z" fill="#4C2F1B"/>
<path d="M12.779 6.44198C12.6694 6.44198 12.5736 6.38717 12.5187 6.29112C12.2859 5.83902 12.0805 5.66099 11.779 5.6884C11.6558 5.70223 11.5052 5.74322 11.3271 5.81161C10.8476 5.97606 10.1765 6.18149 9.23158 5.86643C8.09479 5.48297 6.99899 5.49655 6.98516 5.49655C6.83455 5.49655 6.69751 5.37334 6.69751 5.22272C6.69751 5.07211 6.82072 4.93507 6.97134 4.93507C7.01257 4.93507 8.16294 4.92124 9.40936 5.33235C10.1763 5.5926 10.6968 5.41457 11.1489 5.27754C11.3543 5.2089 11.5323 5.15433 11.7242 5.1405C12.5323 5.0721 12.8884 5.7842 13.0254 6.05828C13.0941 6.19507 13.0392 6.37334 12.9022 6.44174C12.8612 6.4284 12.82 6.44198 12.779 6.44198Z" fill="white"/>
<path d="M9.32739 7.66099C9.32739 7.81976 9.70739 7.94865 10.1765 7.94865C10.6454 7.94865 11.0257 7.81976 11.0257 7.66099C11.0257 7.50223 10.6454 7.37334 10.1765 7.37334C9.70739 7.37334 9.32739 7.50223 9.32739 7.66099Z" fill="white"/>
<path d="M6.34125 12.9756C6.34125 13.1269 6.39014 13.2494 6.45088 13.2494C6.51137 13.2494 6.56026 13.1267 6.56026 12.9756C6.56026 12.8242 6.51137 12.7017 6.45088 12.7017C6.39038 12.7017 6.34125 12.8242 6.34125 12.9756Z" fill="#DB914D"/>
<path d="M8.83405 15.5918C8.83405 15.7205 8.87084 15.8247 8.91627 15.8247C8.9617 15.8247 8.99849 15.7205 8.99849 15.5918C8.99849 15.4632 8.9617 15.359 8.91627 15.359C8.87108 15.3588 8.83405 15.463 8.83405 15.5918Z" fill="#DB914D"/>
<path d="M3.83484 12.1948C3.83484 12.3763 3.89607 12.5235 3.97163 12.5235C4.04743 12.5235 4.10867 12.3763 4.10867 12.1948C4.10867 12.0133 4.04743 11.8659 3.97163 11.8659C3.89607 11.8659 3.83484 12.0133 3.83484 12.1948Z" fill="#DB914D"/>
<path d="M7.58765 14.2358C7.58765 14.4173 7.64888 14.5645 7.72444 14.5645C7.80024 14.5645 7.86147 14.4173 7.86147 14.2358C7.86147 14.0543 7.80024 13.9069 7.72444 13.9069C7.64888 13.9069 7.58765 14.0541 7.58765 14.2358Z" fill="#DB914D"/>
<path d="M1.88965 11.7975C1.88965 12.138 1.95706 12.4141 2.04027 12.4141C2.12348 12.4141 2.19088 12.138 2.19088 11.7975C2.19088 11.457 2.12348 11.1812 2.04027 11.1812C1.95706 11.1812 1.88965 11.457 1.88965 11.7975Z" fill="#DB914D"/>
<path d="M18.7783 13.9207C18.7783 13.6879 18.7235 13.6605 18.6551 13.6605C18.5864 13.6605 18.518 13.8523 18.518 14.0849C18.518 14.3178 18.5729 14.4274 18.6551 14.4274C18.7235 14.4274 18.7783 14.1533 18.7783 13.9207ZM12.9845 17.0163C12.9845 16.8109 12.9432 16.7835 12.8612 16.7835C12.7929 16.7835 12.738 16.9615 12.738 17.1669C12.738 17.3723 12.7929 17.482 12.8612 17.482C12.9296 17.4681 12.9845 17.2217 12.9845 17.0163Z" fill="#DB914D"/>
<path d="M13.7652 10.4827C13.7104 10.4827 13.6556 10.4689 13.6007 10.4279C13.4775 10.3457 13.4363 10.1677 13.5323 10.0306C13.8062 9.63334 14.4775 9.16766 14.9706 8.82544C15.0938 8.74321 15.2035 8.66099 15.2857 8.60618C15.1348 8.46939 14.7652 8.26371 14.3269 8.18173C13.4778 8.01729 13.0531 6.96272 13.0257 6.92149C12.9709 6.77062 13.0395 6.60642 13.1763 6.55161C13.3269 6.49679 13.4914 6.56519 13.5462 6.70223C13.642 6.92149 13.9706 7.52395 14.4227 7.61976C14.9568 7.72939 15.7514 8.07186 15.8746 8.51013C15.9156 8.67457 15.8746 8.83902 15.7514 8.94865C15.6556 9.03087 15.5049 9.1405 15.2719 9.29111C14.8472 9.57877 14.2035 10.0306 13.9842 10.3457C13.9432 10.4415 13.861 10.4827 13.7652 10.4827Z" fill="white"/>
<path d="M8.12788 2.87112C8.16788 2.97729 8.49874 2.95112 8.86689 2.81235C9.23504 2.67383 9.50097 2.47532 9.46121 2.36914C9.42121 2.26297 9.09035 2.28914 8.7222 2.42791C8.35405 2.56643 8.08788 2.7647 8.12788 2.87112Z" fill="#F8CD8C"/>
<path d="M10.8264 14.8286C10.8696 14.943 11.0363 15.001 11.2642 14.9807C11.4921 14.9602 11.7462 14.8647 11.9309 14.7299C12.1156 14.5948 12.2027 14.4412 12.1595 14.3267C12.1163 14.2123 11.9496 14.1543 11.7217 14.1746C11.4938 14.1948 11.2398 14.2906 11.0551 14.4254C10.8704 14.5605 10.7835 14.7141 10.8264 14.8286Z" fill="#F8CD8C"/>
<path d="M3.1852 9.04518C3.25557 9.20419 3.60446 9.20419 3.96397 9.04494C4.32372 8.88592 4.55829 8.6279 4.48792 8.46864C4.41755 8.30963 4.0689 8.30963 3.70915 8.46864C3.3494 8.62815 3.11483 8.88617 3.1852 9.04518Z" fill="#F8CD8C"/>
<path d="M17.2358 11.0064C17.3062 11.1654 17.6548 11.1654 18.0146 11.0062C18.3743 10.8472 18.6089 10.5891 18.5385 10.4299C18.4681 10.2706 18.1193 10.2709 17.7595 10.4299C17.4 10.5894 17.1654 10.8474 17.2358 11.0064Z" fill="#F8CD8C"/>
<path d="M12.6474 13.9469C12.7178 14.1059 13.0664 14.1059 13.4262 13.9469C13.7859 13.7879 14.0205 13.5296 13.9499 13.3706C13.8795 13.2116 13.5309 13.2116 13.1711 13.3709C12.8114 13.5299 12.5771 13.7879 12.6474 13.9469Z" fill="#F8CD8C"/>
<path d="M2.34961 6.32075C2.38937 6.41062 2.58986 6.40914 2.79727 6.31729C3.00492 6.22544 3.14072 6.07803 3.10122 5.98815C3.06147 5.89828 2.86097 5.89976 2.65332 5.99161C2.44591 6.08346 2.30986 6.23062 2.34961 6.32075Z" fill="#F8CD8C"/>
</g>
<defs>
<clipPath id="clip0_13_7686">
<rect width="21.5114" height="20" fill="white"/>
</clipPath>
</defs>
</svg>
