<svg width="18" height="14" viewBox="0 0 18 14" fill="none" xmlns="http://www.w3.org/2000/svg">
<path d="M2.88158 3.11532C2.88158 3.11532 10.1232 7.65291 9.26075 11.3683C9.26075 11.3683 2.66342 9.12368 2.88158 3.11532Z" fill="#359A60"/>
<path d="M9.55451 11.9199L9.11859 11.7748C9.05222 11.7554 2.23693 9.35598 2.45489 3.1057L2.48336 2.38013L3.08992 2.75735C3.39329 2.95097 10.5876 7.49838 9.64915 11.4651L9.55451 11.9199ZM3.30807 3.90863C3.61145 8.08845 7.5261 10.1685 8.91005 10.7684C8.94795 8.32075 5.37438 5.3311 3.30807 3.90863Z" fill="#4C2F1B"/>
<path d="M0.521362 4.46022C0.521362 4.46022 2.30334 12.8389 9.91468 12.8389C9.9243 12.8391 7.65888 4.55703 0.521362 4.46022Z" fill="#33AC64"/>
<path d="M9.91465 13.2648C2.05688 13.2648 0.13274 4.64422 0.113693 4.55703L0 4.0345L0.521338 4.04412C7.88624 4.14093 10.2938 12.6455 10.3129 12.7327L10.4645 13.2744L9.91465 13.2648C9.92427 13.2648 9.91465 13.2648 9.91465 13.2648ZM1.07115 4.915C1.58306 6.6758 3.62089 12.0554 9.33656 12.3939C8.70134 10.6428 6.36013 5.3311 1.07115 4.915Z" fill="#4C2F1B"/>
<path d="M15.0522 3.65729C15.0522 3.65729 8.04745 8.56267 9.09955 12.2296C9.09955 12.2294 15.5734 9.64621 15.0522 3.65729Z" fill="#359A60"/>
<path d="M8.83409 12.8004L8.70135 12.3553C7.57345 8.4368 14.5213 3.5218 14.815 3.30894L15.4028 2.89284L15.4691 3.61861C16.0093 9.84945 9.32696 12.5972 9.25116 12.6262L8.83409 12.8004ZM14.6635 4.46984C12.6824 5.99854 9.26059 9.17199 9.4216 11.6199C10.7679 10.933 14.5782 8.64966 14.6635 4.46984Z" fill="#4C2F1B"/>
<path d="M17.5262 4.64422C17.5262 4.64422 9.13745 8.6206 9.62089 12.7423C9.63031 12.7423 17.0237 11.1555 17.5262 4.64422Z" fill="#33AC64"/>
<path d="M9.27022 13.255L9.21328 12.7906C8.70136 8.40773 17.0049 4.42154 17.3554 4.25698L18 3.94751L17.9431 4.67308C17.4217 11.4264 9.79156 13.1389 9.70614 13.1582L9.27022 13.255ZM17.0143 5.3794C15.166 6.35651 10.2371 9.24955 10.0286 12.1907C11.5639 11.7263 16.1992 9.9655 17.0143 5.3794Z" fill="#4C2F1B"/>
<path d="M8.87218 1.0643C9.31773 1.0643 9.75365 1.28678 10.0001 1.74156L14.9574 10.9815C15.4218 11.8524 14.8058 12.9263 13.8295 12.9263H3.90543C2.92913 12.9263 2.31295 11.862 2.77754 10.9815L7.74448 1.74156C7.99052 1.28678 8.42644 1.0643 8.87218 1.0643ZM8.87218 0C8.01919 0 7.2418 0.474023 6.83416 1.22865L1.8674 10.4686C1.46938 11.2136 1.47881 12.0941 1.9053 12.8197C2.3318 13.5454 3.08072 13.9808 3.90524 13.9808H13.8293C14.6635 13.9808 15.4122 13.5454 15.8292 12.8197C16.2557 12.0941 16.2654 11.2136 15.8671 10.4686L10.91 1.22865C10.5024 0.464402 9.71575 0 8.87218 0Z" fill="#4C2F1B"/>
<path d="M7.0615 7.76916C7.0236 7.76916 6.99513 7.76916 6.95723 7.75954C6.58768 7.71124 6.36953 7.38213 6.35068 7.34344C6.28431 7.24663 6.31278 7.11114 6.40762 7.05322C6.50227 6.98547 6.63501 7.01453 6.69195 7.11134C6.72985 7.16947 6.86259 7.31458 7.01438 7.34364C7.11864 7.35326 7.23234 7.31458 7.34622 7.20815C7.43145 7.13078 7.56419 7.1404 7.63998 7.22759C7.71578 7.31458 7.70635 7.45007 7.62113 7.52744C7.4503 7.69179 7.26061 7.76916 7.0615 7.76916Z" fill="#F9E39E"/>
<path d="M9.981 1.60607L15.2605 10.962C15.7534 11.8327 15.1374 12.9261 14.1515 12.9261H3.58297C2.59724 12.9261 1.98106 11.8327 2.47393 10.962L7.7629 1.61569C8.25597 0.735387 9.48813 0.735387 9.981 1.60607Z" fill="#FAF7BD"/>
<path d="M5.01425 6.2599L1.92412 10.9717C1.43126 11.8423 2.04744 12.9357 3.03317 12.9357L9.72514 12.9261C7.42183 11.5812 5.57349 7.33382 5.01425 6.2599Z" fill="#3AB26C"/>
<path d="M7.08998 8.93026C7.05209 8.93026 7.02362 8.93026 6.98572 8.92064C6.61617 8.87214 6.39801 8.54323 6.37916 8.50454C6.31279 8.40774 6.34126 8.27224 6.4361 8.21432C6.53095 8.14657 6.66368 8.17564 6.72043 8.27244C6.75833 8.33057 6.89107 8.47568 7.04266 8.50474C7.14693 8.52419 7.26062 8.47568 7.37451 8.36925C7.45993 8.29189 7.59247 8.30151 7.66846 8.38869C7.74426 8.47568 7.73483 8.61117 7.64942 8.68854C7.47878 8.84307 7.28909 8.93026 7.08998 8.93026ZM6.93839 7.76916C6.9005 7.76916 6.87202 7.76916 6.83413 7.75954C6.46458 7.71123 6.24642 7.38212 6.22757 7.34344C6.1612 7.24663 6.18967 7.11114 6.28451 7.05321C6.37916 6.98547 6.5119 7.01453 6.56884 7.11134C6.60674 7.16947 6.73948 7.31458 6.89107 7.34364C6.99534 7.35326 7.10903 7.31458 7.22292 7.20815C7.30834 7.13078 7.44088 7.1404 7.51687 7.22759C7.59267 7.31458 7.58324 7.45007 7.49783 7.52744C7.31757 7.69179 7.12788 7.76916 6.93839 7.76916Z" fill="#F9E39E"/>
<path d="M8.63497 12.065C5.30803 11.8329 3.45006 8.12713 3.37427 7.96278L3.9335 7.67255C3.95255 7.71123 5.70605 11.2138 8.68229 11.4168L8.63497 12.065Z" fill="#2D9556"/>
<path d="M3.09958 13.2648L2.55939 12.9359C2.61633 12.8487 3.91487 10.6816 7.47882 9.71395L7.63983 10.3331C4.31289 11.2427 3.109 13.2454 3.09958 13.2648Z" fill="#2D9556"/>
<path d="M4.91001 6.3954C4.93848 6.3954 4.97638 6.41484 4.99543 6.4437C5.67798 7.67235 7.39358 11.6393 9.72537 12.9261H3.22288C2.1802 12.9261 1.52613 11.8327 2.04747 10.9621L4.83422 6.4437C4.85307 6.41464 4.88154 6.3954 4.91001 6.3954ZM4.91001 5.3311C4.51199 5.3311 4.15167 5.53434 3.94333 5.88249L1.16581 10.4008V10.4105C0.729885 11.136 0.710838 12.0165 1.11848 12.7519C1.53555 13.5164 2.34122 13.9904 3.22288 13.9904L9.72517 13.9808H13.858L10.218 11.9877C8.5309 11.0685 7.09001 8.23357 6.31281 6.71469C6.1518 6.40522 6.01906 6.13424 5.89574 5.92138C5.69663 5.55358 5.31746 5.3311 4.91001 5.3311Z" fill="#4C2F1B"/>
<path d="M12.9194 6.81129C11.4692 9.63639 8.2179 12.4905 7.63019 12.9261H14.1515C15.1375 12.9261 15.7629 11.8327 15.2606 10.962L12.9194 6.81129Z" fill="#3AB26C"/>
<path d="M8.77734 13.7871L8.62555 13.168C12.7487 12.0941 14.3506 8.57229 14.3697 8.53341L14.9385 8.79477C14.8722 8.94951 13.1943 12.6359 8.77734 13.7871Z" fill="#2D9556"/>
<path d="M12.9005 13.5743L12.2939 13.4292C12.929 10.6235 11.7632 7.7886 11.7535 7.75954L12.3318 7.508C12.3695 7.63387 13.5828 10.5652 12.9005 13.5743Z" fill="#2D9556"/>
<path d="M11.0616 7.66273C11.0237 7.66273 10.9952 7.66273 10.9573 7.65311C10.5877 7.6048 10.3696 7.27589 10.3507 7.23701C10.2844 7.1404 10.3128 7.00491 10.4077 6.94678C10.5023 6.87904 10.6351 6.9081 10.692 7.00491C10.7299 7.06304 10.8626 7.20815 11.0144 7.23701C11.1187 7.24663 11.2324 7.20795 11.3463 7.10152C11.4315 7.02415 11.5642 7.03377 11.64 7.12096C11.7158 7.20815 11.7064 7.34344 11.621 7.42101C11.4502 7.58536 11.2607 7.66273 11.0616 7.66273ZM9.04258 10.3718C9.00468 10.3718 8.97621 10.3718 8.93831 10.3622C8.56857 10.3139 8.35061 9.98494 8.33175 9.94626C8.26538 9.84945 8.29386 9.71396 8.3887 9.65603C8.48354 9.58829 8.61628 9.61735 8.67303 9.71416C8.71093 9.77228 8.84367 9.9174 8.99526 9.94646C9.09953 9.95608 9.21322 9.9174 9.32711 9.81097C9.41252 9.7336 9.54507 9.74322 9.62086 9.83021C9.69666 9.9174 9.68723 10.0527 9.60201 10.1303C9.42175 10.2944 9.23226 10.3718 9.04258 10.3718ZM11.09 8.88176C11.0521 8.88176 11.0237 8.88176 10.9858 8.87214C10.6162 8.82384 10.3981 8.49493 10.3792 8.45624C10.3128 8.35943 10.3413 8.22394 10.4362 8.16602C10.531 8.09827 10.6637 8.12733 10.7205 8.22414C10.7584 8.28227 10.8911 8.42738 11.0427 8.45644C11.147 8.46606 11.2607 8.42738 11.3746 8.32095C11.46 8.24358 11.5925 8.2532 11.6685 8.34019C11.7443 8.42738 11.7349 8.56267 11.6495 8.64024C11.4786 8.79477 11.2889 8.88176 11.09 8.88176Z" fill="#F9E39E"/>
<path d="M12.9194 7.10152C12.9952 7.10152 13.0712 7.1402 13.1185 7.20795L15.3269 10.9522C15.8389 11.8229 15.1942 12.9163 14.161 12.9163H7.63982C8.22752 12.51 11.5356 9.90717 12.7108 7.23681C12.7393 7.15002 12.8247 7.10152 12.9194 7.10152ZM12.9194 6.04704C12.4169 6.04704 11.9619 6.34709 11.7534 6.81149C10.7297 9.11426 7.73446 11.5718 7.04249 12.0554L4.27478 14H14.1515C15.0236 14 15.8292 13.526 16.2463 12.7713C16.654 12.0263 16.6443 11.1557 16.2084 10.4203L13.9999 6.676C13.7726 6.27934 13.3649 6.04704 12.9194 6.04704Z" fill="#4C2F1B"/>
<path d="M8.32238 3.82164C8.28448 3.82164 8.23696 3.82164 8.19926 3.81202C7.82951 3.74428 7.6304 3.41537 7.60212 3.37668C7.54518 3.28007 7.57365 3.14458 7.67792 3.08646C7.77257 3.02833 7.90531 3.05739 7.96225 3.1542C8.00015 3.21233 8.12346 3.36706 8.27505 3.39612C8.37932 3.41557 8.49301 3.37668 8.6069 3.27045C8.69212 3.19309 8.82486 3.21233 8.90066 3.29952C8.97645 3.3867 8.9576 3.522 8.87238 3.59956C8.69193 3.74428 8.51186 3.82164 8.32238 3.82164ZM9.02378 2.30277C8.98588 2.30277 8.93856 2.30277 8.90046 2.29315C8.53091 2.2254 8.3318 1.89649 8.30333 1.85781C8.24638 1.761 8.27486 1.62551 8.3697 1.56758C8.46454 1.50945 8.59728 1.53852 8.65403 1.63533C8.69193 1.69345 8.81524 1.84819 8.96683 1.87725C9.0711 1.89669 9.18479 1.85801 9.29868 1.75138C9.3841 1.67401 9.51664 1.69325 9.59263 1.78044C9.66843 1.86763 9.64958 2.00292 9.56416 2.08029C9.39333 2.2252 9.21326 2.30277 9.02378 2.30277ZM10.0189 3.78296C9.98103 3.78296 9.93371 3.78296 9.89581 3.77334C9.52626 3.70559 9.32715 3.37668 9.29868 3.338C9.24174 3.24119 9.27041 3.1057 9.37448 3.04777C9.46932 2.98965 9.60206 3.01891 9.65881 3.11552C9.6967 3.17364 9.81982 3.32838 9.97161 3.35744C10.0759 3.37668 10.1896 3.338 10.3035 3.23157C10.3889 3.1542 10.5214 3.17344 10.5974 3.26063C10.6732 3.34782 10.6544 3.48311 10.5689 3.56068C10.3887 3.70559 10.2086 3.78296 10.0189 3.78296ZM9.88619 5.21485C9.55434 5.21485 9.29848 4.98275 9.27021 4.95368C9.18479 4.87632 9.18479 4.74082 9.26078 4.65384C9.33658 4.56665 9.46932 4.56665 9.55454 4.64422C9.60206 4.69252 9.76307 4.79895 9.91466 4.78933C10.0189 4.77971 10.1138 4.70214 10.199 4.57647C10.2654 4.47966 10.3981 4.46022 10.4928 4.52797C10.5876 4.59571 10.6066 4.7312 10.5403 4.82801C10.3791 5.06031 10.1799 5.19581 9.95256 5.21505H9.88619V5.21485ZM7.69677 5.12786C7.57365 5.12786 7.46938 5.0988 7.36492 5.04067C7.03307 4.8665 6.93842 4.47946 6.929 4.44078C6.90053 4.32453 6.9669 4.20848 7.08079 4.17941C7.19448 4.15055 7.30817 4.2181 7.32722 4.33435C7.34627 4.40209 7.41264 4.58589 7.5548 4.65364C7.64945 4.70194 7.76334 4.69232 7.9055 4.6342C8.00977 4.59551 8.13308 4.64382 8.18041 4.75025C8.2183 4.85667 8.17098 4.98255 8.06671 5.03085C7.93378 5.10862 7.81046 5.12786 7.69677 5.12786ZM10.7867 6.42426C10.4739 6.42426 10.2369 6.23084 10.2086 6.20178C10.1232 6.12441 10.1043 5.98892 10.1801 5.90173C10.2559 5.81454 10.3793 5.7953 10.4741 5.87287C10.5214 5.91155 10.6921 6.01798 10.8436 5.98892C10.9479 5.96947 11.0331 5.89211 11.1186 5.75662C11.1755 5.66001 11.308 5.62112 11.4029 5.68887C11.4975 5.74699 11.5356 5.88229 11.4693 5.9791C11.3271 6.22102 11.1374 6.36613 10.91 6.40481C10.8721 6.41464 10.8342 6.42426 10.7867 6.42426ZM9.05225 6.62749C9.01435 6.62749 8.98588 6.62749 8.94798 6.61787C8.57823 6.56937 8.36027 6.24046 8.34142 6.20178C8.27505 6.10497 8.30352 5.96947 8.39837 5.91155C8.49301 5.8438 8.62575 5.87287 8.6827 5.96968C8.72059 6.0278 8.85333 6.17291 9.00493 6.20198C9.10919 6.2116 9.22289 6.17291 9.33677 6.06648C9.422 5.98912 9.55474 5.99874 9.63053 6.08573C9.70633 6.17291 9.6969 6.30821 9.61168 6.38577C9.43122 6.55013 9.24174 6.62749 9.05225 6.62749ZM8.97626 7.72085C8.93836 7.72085 8.90989 7.72085 8.87199 7.71123C8.50224 7.66273 8.28428 7.33382 8.26543 7.29513C8.19906 7.19833 8.22753 7.06283 8.32238 7.00491C8.41722 6.93716 8.54996 6.96622 8.60671 7.06303C8.6446 7.12116 8.77734 7.26627 8.92893 7.29533C9.0332 7.30496 9.14689 7.26627 9.26078 7.15984C9.3462 7.08248 9.47874 7.0921 9.55454 7.17908C9.63033 7.26627 9.62091 7.40156 9.53569 7.47913C9.35543 7.64349 9.16594 7.72085 8.97626 7.72085ZM9.00473 9.04631C8.96683 9.04631 8.93836 9.04631 8.90046 9.03669C8.53091 8.98839 8.31275 8.65948 8.2939 8.62059C8.22753 8.52398 8.25601 8.38849 8.35085 8.33037C8.44549 8.26262 8.57823 8.29168 8.63518 8.38849C8.67308 8.44662 8.80582 8.59173 8.95741 8.62059C9.06167 8.63021 9.17537 8.59153 9.28926 8.4851C9.37467 8.40773 9.50722 8.41736 9.58321 8.50454C9.659 8.59173 9.64958 8.72702 9.56416 8.80439C9.3839 8.96894 9.20384 9.04631 9.00473 9.04631ZM7.16581 6.53069C7.12791 6.53069 7.09944 6.53069 7.06154 6.52106C6.6918 6.47276 6.47384 6.14385 6.45498 6.10497C6.38861 6.00836 6.41709 5.87287 6.51193 5.81474C6.60677 5.74699 6.73951 5.77606 6.79626 5.87287C6.83416 5.93099 6.9669 6.0761 7.11849 6.10497C7.22275 6.11459 7.33645 6.0759 7.45034 5.96948C7.53575 5.89211 7.6683 5.90173 7.74429 5.98892C7.82008 6.0761 7.81066 6.2114 7.72524 6.28876C7.5546 6.4437 7.36492 6.53069 7.16581 6.53069Z" fill="#F9E39E"/>
</svg>
